# xmcd
#
# Track frame offsets:
# 150
# 20129
# 20872
# 50101
# 56629
# 80195
# 99732
# 112398
# 130880
# 152226
# 173469
# 204701
# 248484
# 261768
# 264848
# 286694
# 308139
# 321209
# 331920
# 350914
#
# Disc length: 4799 seconds
#
# Revision: 0
# Processed by: cddbd v1.5.1PL2 Copyright (c) Steve Scherf et al.
# Submitted via: Audion 3.0.2 (http://www.panic.com/audion/)
#
DISCID=3212bd14
DTITLE=direct - fixafat
DYEAR=1900
DGENRE=
TTITLE0=q
TTITLE1=q
TTITLE2=q
TTITLE3=q
TTITLE4=q
TTITLE5=q
TTITLE6=q
TTITLE7=q
TTITLE8=q
TTITLE9=q
TTITLE10=q
TTITLE11=q
TTITLE12=q
TTITLE13=q
TTITLE14=qq
TTITLE15=q
TTITLE16=q
TTITLE17=q
TTITLE18=q
TTITLE19=q
EXTD=
EXTT0=
EXTT1=
EXTT2=
EXTT3=
EXTT4=
EXTT5=
EXTT6=
EXTT7=
EXTT8=
EXTT9=
EXTT10=
EXTT11=
EXTT12=
EXTT13=
EXTT14=
EXTT15=
EXTT16=
EXTT17=
EXTT18=
EXTT19=
PLAYORDER=
